<svg data-v-fde0c5aa="" xmlns="http://www.w3.org/2000/svg" viewBox="0 0 300 300" class="iconLeftSlogan"><!----><defs data-v-fde0c5aa=""><linearGradient data-v-fde0c5aa="" gradientTransform="rotate(25)" id="a183facf-44ba-4d66-b19d-a2d078bf3f89" x1="0%" y1="0%" x2="100%" y2="0%"><stop data-v-fde0c5aa="" offset="0%" stop-color="#563F33" stop-opacity="1"></stop><stop data-v-fde0c5aa="" offset="100%" stop-color="#A3A1A1" stop-opacity="1"></stop></linearGradient></defs><rect data-v-fde0c5aa="" fill="url(#a183facf-44ba-4d66-b19d-a2d078bf3f89)" x="0" y="0" width="300px" height="300px" class="logo-background-square"></rect><defs data-v-fde0c5aa=""><!----></defs><g data-v-fde0c5aa="" id="bdb6ddb6-0d25-4c07-9613-53c2fed6f640" fill="#ffffff" transform="matrix(2.8251322660084868,0,0,2.8251322660084868,121.96403660045647,84.9946753735511)"><path d="M12.29 13.41L10.96 14.53L10.96 23.63L9.76 23.63L3.19 16.14L3.19 21.98L5.18 22.72L4.73 23.63L0.67 23.63L0.67 22.85L1.99 21.74L1.99 14.39L0.43 13.54L0.90 12.63L3.36 12.63L9.76 19.91L9.76 14.27L7.77 13.54L8.23 12.63L12.29 12.63L12.29 13.41ZM17.96 15.95Q19.43 15.95 20.24 17.07Q21.04 18.19 21.01 20.17L21.01 20.17L15.97 20.17Q16.11 21.03 16.58 21.54Q17.04 22.05 17.78 22.05L17.78 22.05Q18.76 22.05 20.59 21.07L20.59 21.07L21.01 21.87L18.89 23.56Q18.06 23.77 16.97 23.77L16.97 23.77Q15.95 23.77 15.13 23.29Q14.31 22.81 13.85 21.97Q13.40 21.13 13.40 20.10L13.40 20.10Q13.40 19.00 14.11 18.04Q14.83 17.08 15.90 16.51Q16.97 15.95 17.96 15.95L17.96 15.95ZM17.19 17.57Q16.58 17.57 16.27 17.98Q15.96 18.40 15.93 19.25L15.93 19.25L18.61 19.25Q18.49 18.38 18.19 17.98Q17.89 17.57 17.18 17.57L17.18 17.57L17.19 17.57ZM25.77 22.25Q25.77 22.81 25.81 23.28Q25.84 23.74 25.90 23.91L25.90 23.91L22.86 27.33L21.98 26.64Q22.82 25.65 23.11 24.95Q23.39 24.25 23.39 23.21L23.39 23.21L23.39 18.37L22.15 17.50L22.15 16.72L24.89 15.82L25.77 15.82L25.77 22.25ZM24.57 11.72Q25.17 11.72 25.56 12.10Q25.94 12.49 25.94 13.06L25.94 13.06Q25.94 13.47 25.66 13.82Q25.38 14.17 24.96 14.38Q24.54 14.59 24.15 14.59L24.15 14.59Q23.56 14.59 23.18 14.20Q22.79 13.82 22.79 13.24L22.79 13.24Q22.79 12.84 23.07 12.49Q23.35 12.14 23.77 11.93Q24.18 11.72 24.57 11.72L24.57 11.72ZM36.29 22.72L35.84 23.63L32.65 23.63L32.65 22.41L31.07 23.66Q30.79 23.77 30.37 23.77L30.37 23.77Q29.02 23.77 28.43 23.11Q27.83 22.46 27.83 21.53L27.83 21.53Q27.83 20.99 28.17 20.46Q28.50 19.94 29.13 19.49L29.13 19.49L32.65 19.49L32.65 19.25Q32.65 18.48 32.23 18.12Q31.81 17.75 31.11 17.75L31.11 17.75Q30.13 17.75 28.55 18.52L28.55 18.52L28.13 17.72L30.07 16.16Q30.79 15.95 31.74 15.95L31.74 15.95Q33.31 15.95 34.17 16.66Q35.03 17.37 35.03 18.73L35.03 18.73L35.03 22.23L36.29 22.72ZM31.08 21.90Q31.79 21.90 32.65 21.31L32.65 21.31L32.65 20.41L30.39 20.41Q30.28 20.58 30.23 20.73Q30.18 20.87 30.18 21.06L30.18 21.06Q30.18 21.41 30.43 21.64Q30.67 21.88 31.08 21.88L31.08 21.88L31.08 21.90ZM43.20 22.54L41.79 23.66Q41.31 23.77 40.66 23.77L40.66 23.77Q39.31 23.77 38.69 23.16Q38.07 22.55 38.07 21.28L38.07 21.28L38.07 17.43L36.55 17.43L36.55 16.69L39.56 13.41L40.45 13.41L40.45 16.51L42.97 16.51L42.97 17.43L40.45 17.43L40.45 21.18Q40.45 22.15 41.54 22.15L41.54 22.15Q41.82 22.15 42.09 22.06Q42.36 21.97 42.78 21.74L42.78 21.74L43.20 22.54ZM48.86 22.72L48.40 23.63L43.97 23.63L43.97 22.85L45.22 21.80L45.22 18.55L43.97 17.72L43.97 16.94L46.72 15.82L47.60 15.82L47.60 22.30L48.86 22.72ZM46.40 11.61Q47.00 11.61 47.38 11.99Q47.77 12.38 47.77 12.95L47.77 12.95Q47.77 13.36 47.49 13.71Q47.21 14.06 46.79 14.27Q46.37 14.48 45.98 14.48L45.98 14.48Q45.39 14.48 45.00 14.09Q44.62 13.71 44.62 13.13L44.62 13.13Q44.62 12.73 44.90 12.38Q45.18 12.03 45.59 11.82Q46.00 11.61 46.40 11.61L46.40 11.61Z"></path></g><defs data-v-fde0c5aa=""><!----></defs><g data-v-fde0c5aa="" id="45b084b3-a4e5-49cb-81d6-0fb70bb8bd33" stroke="none" fill="#ffffff" transform="matrix(0.9272368240910501,0,0,0.9272368240910501,27.96168449675654,103.72485379727271)"><g clip-rule="evenodd"><path d="M12.983 10.59l17.018 88.223-5.872-59.049 29.021-1.892-.054-9.883L64.549 1 53.622 18.977z"></path><path d="M59.389 54.548l5.16-53.541-8.74 39.716-19.612 1.045 1.57 20.462-7.766 36.583 12.057-39.899z"></path><path d="M62.8 67.182l.549-10.453-15.979 3.755-.032 11.797-17.337 26.532 21.68-27.616zM65.711 62.394l14.841-4.731 1.509-12.532-15.899 2.095zM72.07 44.502l10.988-1.417 1.581-10.278-8.079-.373L64.549 1l8.43 30.967z"></path><path d="M87.413 31.294l1.256-9.506-9.544-2.694L64.549 1l14.483 22.437-.422 7z"></path></g></g><defs data-v-fde0c5aa=""><!----></defs><g data-v-fde0c5aa="" id="0f71e6a4-52bb-4623-923b-a97496a24b01" fill="#ffffff" transform="matrix(1.8476860346558093,0,0,1.8476860346558093,122.47672275562294,166.88420399676295)"><path d="M0.75 3.64L0.38 3.64L0.38 3.08L3.86 3.08L3.86 3.64L3.50 3.64Q2.99 3.64 2.84 3.75L2.84 3.75Q2.71 3.84 2.70 4.25L2.70 4.25L2.70 6.91L7.25 6.91L7.25 4.14Q7.25 3.77 7.16 3.71L7.16 3.71Q7.05 3.64 6.52 3.64L6.52 3.64L5.93 3.64L5.92 3.08L9.47 3.08L9.47 3.64L9.08 3.64Q8.61 3.64 8.50 3.74Q8.39 3.83 8.39 4.22L8.39 4.22L8.39 11.29Q8.39 11.67 8.52 11.77L8.52 11.77Q8.68 11.87 9.23 11.87L9.23 11.87L9.70 11.87L9.69 12.41L6.20 12.41L6.19 11.87L6.60 11.87Q7.06 11.87 7.16 11.77Q7.25 11.67 7.25 11.25L7.25 11.25L7.25 7.58L2.70 7.58L2.70 11.25Q2.70 11.67 2.85 11.77Q3.01 11.87 3.71 11.87L3.71 11.87L4.12 11.87L4.09 12.41L0.51 12.41L0.49 11.87L0.85 11.87Q1.40 11.87 1.47 11.80L1.47 11.80Q1.57 11.70 1.57 11.25L1.57 11.25L1.57 4.09Q1.57 3.76 1.43 3.71L1.43 3.71Q1.26 3.64 0.75 3.64L0.75 3.64ZM17.82 7.83L17.82 7.83Q17.82 6.62 18.22 5.68L18.22 5.68Q18.64 4.72 19.33 4.12L19.33 4.12Q20.02 3.51 20.88 3.19L20.88 3.19Q21.72 2.88 22.67 2.88L22.67 2.88Q23.93 2.88 24.99 3.40L24.99 3.40Q26.07 3.93 26.78 5.07L26.78 5.07Q27.47 6.17 27.48 7.75L27.48 7.75Q27.48 8.70 27.17 9.54Q26.87 10.38 26.26 11.10Q25.66 11.81 24.72 12.22L24.72 12.22Q23.75 12.63 22.57 12.64L22.57 12.64Q21.43 12.64 20.49 12.23Q19.56 11.83 19.00 11.14L19.00 11.14Q18.42 10.45 18.13 9.60L18.13 9.60Q17.82 8.72 17.82 7.83ZM19.08 7.38L19.08 7.38Q19.08 8.52 19.51 9.60L19.51 9.60Q19.91 10.64 20.84 11.33L20.84 11.33Q21.75 12.03 22.94 12.04L22.94 12.04Q24.32 12.04 25.25 11.01L25.25 11.01Q26.20 9.97 26.20 8.10L26.20 8.10Q26.20 5.99 25.04 4.72L25.04 4.72Q23.89 3.46 22.38 3.45L22.38 3.45Q21.86 3.45 21.32 3.65Q20.77 3.85 20.27 4.25L20.27 4.25Q19.72 4.68 19.40 5.48L19.40 5.48Q19.08 6.27 19.08 7.38ZM35.88 5.35L35.38 5.33Q35.50 4.17 35.58 3.08L35.58 3.08L43.66 3.08Q43.58 4.13 43.55 4.53L43.55 4.53Q43.51 5.26 43.49 5.32L43.49 5.32L42.99 5.30Q43.07 4.34 43.07 4.16L43.07 4.16Q43.07 3.88 42.93 3.79L42.93 3.79Q42.76 3.69 42.36 3.69L42.36 3.69L40.75 3.69Q40.24 3.69 40.12 3.79L40.12 3.79Q40.02 3.87 40.02 4.36L40.02 4.36L40.02 11.22Q40.02 11.66 40.16 11.76L40.16 11.76Q40.32 11.87 40.83 11.87L40.83 11.87L41.39 11.87L41.41 12.41L37.71 12.40L37.71 11.87L37.93 11.87Q38.60 11.87 38.75 11.79Q38.89 11.70 38.89 11.28L38.89 11.28L38.89 4.48Q38.89 3.92 38.79 3.80Q38.69 3.69 38.27 3.69L38.27 3.69L36.80 3.69Q36.61 3.69 36.54 3.71Q36.48 3.72 36.37 3.72L36.37 3.72Q36.34 3.72 36.22 3.79L36.22 3.79Q36.14 3.84 36.11 3.86Q36.09 3.88 36.05 3.99L36.05 3.99Q36.02 4.05 35.99 4.14L35.99 4.14Q35.96 4.21 35.94 4.36L35.94 4.36Q35.92 4.59 35.92 4.61L35.92 4.61Q35.92 4.80 35.90 4.95L35.90 4.95Q35.90 5.02 35.90 5.15Q35.89 5.29 35.88 5.35L35.88 5.35ZM51.41 3.64L51.40 3.08L58.61 3.08Q58.63 4.14 58.68 5.28L58.68 5.28L58.13 5.30Q58.12 4.66 58.06 4.25L58.06 4.25Q58.02 3.89 57.97 3.80L57.97 3.80Q57.91 3.71 57.80 3.69L57.80 3.69Q57.70 3.68 57.11 3.68L57.11 3.68L54.74 3.68Q54.19 3.68 54.04 3.77L54.04 3.77Q53.92 3.86 53.92 4.33L53.92 4.33L53.92 6.28Q53.92 6.69 53.98 6.76L53.98 6.76Q54.04 6.84 54.39 6.84L54.39 6.84L56.50 6.84Q56.86 6.84 56.94 6.73L56.94 6.73Q57.03 6.63 57.03 6.14L57.03 6.14L57.03 5.61L57.54 5.63L57.54 8.97L57.03 8.97L57.03 8.24Q57.03 7.66 56.96 7.57L56.96 7.57Q56.88 7.46 56.53 7.46L56.53 7.46L54.43 7.46Q54.09 7.46 54.01 7.54Q53.92 7.63 53.92 7.89L53.92 7.89L53.92 11.20Q53.92 11.57 54.01 11.67Q54.09 11.77 54.37 11.77L54.37 11.77Q57.29 11.75 57.81 11.69L57.81 11.69Q58.33 11.63 58.41 11.38L58.41 11.38L58.42 11.36L58.43 11.35L58.65 10.17L59.13 10.25L58.78 12.41L51.68 12.41L51.68 11.87L52.05 11.87Q52.61 11.87 52.69 11.80L52.69 11.80Q52.79 11.72 52.79 11.33L52.79 11.33L52.79 4.24Q52.79 3.82 52.64 3.73L52.64 3.73Q52.47 3.64 51.81 3.64L51.81 3.64L51.41 3.64ZM67.50 3.64L67.01 3.64L67.02 3.08L70.61 3.08L70.61 3.64L69.97 3.64Q69.60 3.64 69.48 3.72Q69.37 3.80 69.37 4.16L69.37 4.16L69.37 11.22Q69.37 11.57 69.46 11.67Q69.54 11.77 69.84 11.77L69.84 11.77Q72.71 11.74 73.36 11.63L73.36 11.63Q73.58 11.61 73.66 11.39Q73.74 11.17 73.94 10.05L73.94 10.05L74.43 10.08L73.96 12.41L67.20 12.41L67.19 11.87L67.58 11.87Q68.09 11.87 68.15 11.80L68.15 11.80Q68.24 11.72 68.24 11.33L68.24 11.33L68.24 4.09Q68.24 3.80 68.09 3.72L68.09 3.72Q67.94 3.64 67.50 3.64L67.50 3.64Z"></path></g></svg>